STARTFONT 2.1
COMMENT Silicon Graphics FREE font
FONT -SGI-Haeberli-Medium-R-Normal--24-240-72-72-P-126-ISO8859-1
SIZE 24 72 72
FONTBOUNDINGBOX 18 24 0 -8
STARTPROPERTIES 22
_DEC_DEVICE_FONTNAMES "FM=Haeberli"
FONTNAME_REGISTRY ""
FOUNDRY "SGI"
FAMILY_NAME "Haeberli"
WEIGHT_NAME "Medium"
SLANT "R"
SETWIDTH_NAME "Normal"
ADD_STYLE_NAME ""
PIXEL_SIZE 24
POINT_SIZE 240
RESOLUTION_X 72
RESOLUTION_Y 72
SPACING "P"
AVERAGE_WIDTH 126
CHARSET_REGISTRY "ISO8859"
CHARSET_ENCODING "1"
CHARSET_COLLECTIONS "ASCII ISO8859-1"
FULL_NAME "Haeberli"
CAP_HEIGHT 16
FONT_ASCENT 16
FONT_DESCENT 8
X_HEIGHT 11
ENDPROPERTIES
CHARS 190
STARTCHAR space
ENCODING 32
SWIDTH 432 0
DWIDTH 10 0
BBX 1 1 0 0 
BITMAP
00
ENDCHAR
STARTCHAR exclam
ENCODING 33
SWIDTH 250 0
DWIDTH 6 0
BBX 3 15 3 0
BITMAP
60
60
60
60
60
60
40
c0
c0
c0
c0
c0
00
c0
c0
ENDCHAR
STARTCHAR quotedbl
ENCODING 34
SWIDTH 393 0
DWIDTH 9 0
BBX 7 5 2 10
BITMAP
c8
cc
6c
66
04
ENDCHAR
STARTCHAR numbersign
ENCODING 35
SWIDTH 595 0
DWIDTH 14 0
BBX 12 13 2 2
BITMAP
0400
0c00
fd80
7d80
1f80
dbc0
fbe0
7f00
37e0
66f0
6c00
6c00
0800
ENDCHAR
STARTCHAR dollar
ENCODING 36
SWIDTH 612 0
DWIDTH 15 0
BBX 12 19 2 -4
BITMAP
6600
3f00
3fc0
f3f0
db20
db00
fb00
3f00
1fc0
19e0
0db0
0db0
6df0
7fe0
1fc0
0d80
0980
1980
0100
ENDCHAR
STARTCHAR percent
ENCODING 37
SWIDTH 655 0
DWIDTH 16 0
BBX 13 16 2 -2
BITMAP
0018
3038
7070
d860
d8c0
f1c0
e180
4320
0778
06d8
0db0
19f0
39e0
30c0
6000
6000
ENDCHAR
STARTCHAR ampersand
ENCODING 38
SWIDTH 666 0
DWIDTH 16 0
BBX 13 17 2 -1
BITMAP
1e00
1f00
3300
3600
1e00
1c00
1c00
1e00
1f00
3318
71b8
60f0
c0f0
c3f0
cf18
fe00
7800
ENDCHAR
STARTCHAR quoteright
ENCODING 39
SWIDTH 241 0
DWIDTH 6 0
BBX 3 4 2 10
BITMAP
60
c0
c0
80
ENDCHAR
STARTCHAR parenleft
ENCODING 40
SWIDTH 334 0
DWIDTH 8 0
BBX 5 17 2 -3
BITMAP
30
30
60
60
c0
c0
c0
c0
c0
c0
c0
c0
60
70
30
18
18
ENDCHAR
STARTCHAR parenright
ENCODING 41
SWIDTH 299 0
DWIDTH 7 0
BBX 4 18 2 -3
BITMAP
c0
e0
60
70
30
30
30
10
10
10
30
30
30
30
60
60
60
c0
ENDCHAR
STARTCHAR asterisk
ENCODING 42
SWIDTH 596 0
DWIDTH 14 0
BBX 12 10 2 3
BITMAP
2180
3380
3b00
1e00
0ff0
ffc0
fe00
1b00
3380
2000
ENDCHAR
STARTCHAR plus
ENCODING 43
SWIDTH 530 0
DWIDTH 13 0
BBX 10 10 2 2
BITMAP
0c00
0c00
0c00
7fc0
ffc0
0c00
0c00
0c00
0c00
0800
ENDCHAR
STARTCHAR comma
ENCODING 44
SWIDTH 238 0
DWIDTH 6 0
BBX 3 5 2 -2
BITMAP
60
60
60
c0
c0
ENDCHAR
STARTCHAR minus
ENCODING 45
SWIDTH 545 0
DWIDTH 13 0
BBX 10 3 2 6
BITMAP
1000
ffc0
03c0
ENDCHAR
STARTCHAR period
ENCODING 46
SWIDTH 219 0
DWIDTH 5 0
BBX 3 2 2 0
BITMAP
e0
e0
ENDCHAR
STARTCHAR slash
ENCODING 47
SWIDTH 512 0
DWIDTH 12 0
BBX 9 17 2 -2
BITMAP
0080
0180
0180
0180
0300
0300
0600
0600
0c00
0c00
1800
1800
3000
6000
6000
c000
8000
ENDCHAR
STARTCHAR zero
ENCODING 48
SWIDTH 596 0
DWIDTH 14 0
BBX 12 15 2 0
BITMAP
0780
1fc0
3860
7060
6030
c030
c030
c030
c060
c060
c060
60c0
3180
3f80
0e00
ENDCHAR
STARTCHAR one
ENCODING 49
SWIDTH 291 0
DWIDTH 7 0
BBX 4 15 2 0
BITMAP
30
70
f0
b0
30
30
30
30
30
30
30
30
30
30
20
ENDCHAR
STARTCHAR two
ENCODING 50
SWIDTH 588 0
DWIDTH 14 0
BBX 11 15 2 0
BITMAP
0780
7fc0
7060
0060
00e0
00c0
0180
0300
0700
0c00
1800
7000
67c0
ffe0
fc00
ENDCHAR
STARTCHAR three
ENCODING 51
SWIDTH 594 0
DWIDTH 14 0
BBX 12 16 2 0
BITMAP
77c0
ffe0
c1c0
4380
0700
0e00
1e00
1fc0
11e0
0070
0030
0070
8060
c0e0
7fc0
3f00
ENDCHAR
STARTCHAR four
ENCODING 52
SWIDTH 681 0
DWIDTH 16 0
BBX 13 17 2 -1
BITMAP
0060
00e0
00f0
01b0
0330
0630
0c30
1830
3030
60f8
fff8
fe30
0030
0030
0030
0020
0020
ENDCHAR
STARTCHAR five
ENCODING 53
SWIDTH 616 0
DWIDTH 15 0
BBX 12 15 2 0
BITMAP
3fe0
3ff0
3000
3000
3000
3f00
3fc0
00e0
0030
0030
0030
8060
c1e0
7f80
3e00
ENDCHAR
STARTCHAR six
ENCODING 54
SWIDTH 498 0
DWIDTH 12 0
BBX 9 16 2 0
BITMAP
0200
0700
0600
0c00
1800
1800
3000
7f00
7f80
e180
c180
c180
c180
c700
fe00
7800
ENDCHAR
STARTCHAR seven
ENCODING 55
SWIDTH 554 0
DWIDTH 13 0
BBX 10 14 2 0
BITMAP
3fc0
ffc0
00c0
00c0
0180
0180
0f80
03c0
0300
0600
0600
0c00
0c00
1800
ENDCHAR
STARTCHAR eight
ENCODING 56
SWIDTH 541 0
DWIDTH 13 0
BBX 10 16 2 0
BITMAP
0200
0f00
1d80
30c0
60c0
61c0
6380
3f00
1f80
38c0
6040
c0c0
c0c0
c380
7f00
3c00
ENDCHAR
STARTCHAR nine
ENCODING 57
SWIDTH 565 0
DWIDTH 14 0
BBX 11 17 2 -1
BITMAP
01c0
0fc0
1e60
7060
6060
c060
c0e0
c1e0
c7e0
ff60
3860
0060
0060
0060
0060
00e0
0040
ENDCHAR
STARTCHAR colon
ENCODING 58
SWIDTH 271 0
DWIDTH 6 0
BBX 3 9 2 0
BITMAP
60
e0
00
00
00
00
60
60
60
ENDCHAR
STARTCHAR semicolon
ENCODING 59
SWIDTH 271 0
DWIDTH 6 0
BBX 4 13 1 -3
BITMAP
20
30
30
00
00
00
00
30
30
30
30
60
e0
ENDCHAR
STARTCHAR less
ENCODING 60
SWIDTH 587 0
DWIDTH 14 0
BBX 11 18 2 -3
BITMAP
0060
00e0
01c0
0380
0e00
1c00
3800
7000
e000
f000
1c00
0e00
0700
0380
0180
00c0
0060
0020
ENDCHAR
STARTCHAR equal
ENCODING 61
SWIDTH 562 0
DWIDTH 13 0
BBX 11 6 2 5
BITMAP
0080
ffc0
ff00
0000
7fe0
ffe0
ENDCHAR
STARTCHAR greater
ENCODING 62
SWIDTH 522 0
DWIDTH 13 0
BBX 10 17 2 -3
BITMAP
c000
e000
7000
3800
0c00
0600
0300
0180
01c0
0380
0700
0600
0c00
1800
3000
7000
6000
ENDCHAR
STARTCHAR question
ENCODING 63
SWIDTH 582 0
DWIDTH 14 0
BBX 11 16 2 0
BITMAP
1f00
7fc0
e1e0
c060
0060
00e0
01c0
0780
0600
0c00
0600
0600
0400
0000
0600
0600
ENDCHAR
STARTCHAR at
ENCODING 64
SWIDTH 721 0
DWIDTH 17 0
BBX 15 18 2 -4
BITMAP
03e0
0ff0
1c38
300c
61cc
c7ec
ce66
cc6c
98cc
d8cc
d9f8
cff0
c700
6000
7060
3ce0
0fc0
0300
ENDCHAR
STARTCHAR A
ENCODING 65
SWIDTH 790 0
DWIDTH 19 0
BBX 16 17 2 -1
BITMAP
0080
01c0
01c0
0360
0360
0630
0630
3ff8
7ff8
180c
300c
3006
6006
6002
c003
8001
0001
ENDCHAR
STARTCHAR B
ENCODING 66
SWIDTH 606 0
DWIDTH 15 0
BBX 12 16 2 0
BITMAP
f800
fe00
c300
c300
4300
6700
6e00
7fc0
73e0
6070
6030
6030
4070
c0e0
ffc0
ff00
ENDCHAR
STARTCHAR C
ENCODING 67
SWIDTH 609 0
DWIDTH 15 0
BBX 12 15 2 0
BITMAP
0f80
1fc0
3040
6000
c000
c000
c000
8000
c000
c000
c000
6030
70e0
1fc0
0f00
ENDCHAR
STARTCHAR D
ENCODING 68
SWIDTH 600 0
DWIDTH 14 0
BBX 12 17 2 -1
BITMAP
4000
f000
fc00
cf00
c3c0
c0e0
c070
c030
c030
c060
c0c0
c1c0
c780
ce00
fc00
f000
4000
ENDCHAR
STARTCHAR E
ENCODING 69
SWIDTH 623 0
DWIDTH 15 0
BBX 12 15 2 0
BITMAP
7ff0
7ff0
6000
6000
6000
7f00
7f00
6000
6000
4000
4000
c000
c000
ffc0
f800
ENDCHAR
STARTCHAR F
ENCODING 70
SWIDTH 518 0
DWIDTH 12 0
BBX 10 17 2 -1
BITMAP
7f80
ffc0
c000
6000
6000
6000
6000
7f00
7f00
6000
6000
4000
c000
c000
c000
c000
8000
ENDCHAR
STARTCHAR G
ENCODING 71
SWIDTH 699 0
DWIDTH 17 0
BBX 14 15 2 0
BITMAP
0fc0
3fe0
7030
e000
c000
c000
c000
c078
c3fc
c030
c030
6030
6070
3fe0
1f80
ENDCHAR
STARTCHAR H
ENCODING 72
SWIDTH 518 0
DWIDTH 12 0
BBX 10 16 2 0
BITMAP
00c0
c0c0
c0c0
c0c0
40c0
60c0
60c0
7fc0
ffc0
60c0
40c0
c0c0
c180
c180
c180
c180
ENDCHAR
STARTCHAR I
ENCODING 73
SWIDTH 194 0
DWIDTH 5 0
BBX 2 15 2 0
BITMAP
c0
c0
c0
c0
c0
c0
c0
c0
c0
c0
c0
c0
c0
c0
c0
ENDCHAR
STARTCHAR J
ENCODING 74
SWIDTH 570 0
DWIDTH 14 0
BBX 11 17 2 -1
BITMAP
01c0
3fe0
1f00
0300
0300
0300
0100
0180
0180
0180
0180
8180
c300
e300
7300
3f00
1e00
ENDCHAR
STARTCHAR K
ENCODING 75
SWIDTH 554 0
DWIDTH 13 0
BBX 11 16 2 0
BITMAP
8000
80c0
c180
c300
c700
c600
cc00
d800
f800
fc00
cc00
c600
c300
c180
c0c0
c060
ENDCHAR
STARTCHAR L
ENCODING 76
SWIDTH 571 0
DWIDTH 14 0
BBX 11 16 2 0
BITMAP
8000
c000
c000
c000
c000
c000
c000
c000
c000
c000
c000
c000
c040
c060
ffc0
ffc0
ENDCHAR
STARTCHAR M
ENCODING 77
SWIDTH 589 0
DWIDTH 14 0
BBX 11 16 2 -1
BITMAP
4060
e0e0
f0e0
f1e0
d1a0
d9a0
db20
cf20
cf20
c620
c020
c020
c020
c020
c020
0020
ENDCHAR
STARTCHAR N
ENCODING 78
SWIDTH 492 0
DWIDTH 12 0
BBX 9 15 2 0
BITMAP
8080
c180
e180
e180
f180
f180
d980
d980
cd80
c580
c780
c380
c380
c180
c180
ENDCHAR
STARTCHAR O
ENCODING 79
SWIDTH 590 0
DWIDTH 14 0
BBX 11 15 2 0
BITMAP
0600
1f80
39c0
30e0
6060
c060
c060
c020
c020
c060
c060
6040
39c0
1f80
0600
ENDCHAR
STARTCHAR P
ENCODING 80
SWIDTH 556 0
DWIDTH 13 0
BBX 11 16 2 -1
BITMAP
f800
fe00
ef80
61c0
60c0
6060
60c0
6380
7f00
3c00
6000
6000
6000
6000
6000
4000
ENDCHAR
STARTCHAR Q
ENCODING 81
SWIDTH 675 0
DWIDTH 16 0
BBX 13 15 2 0
BITMAP
0fc0
3fe0
7060
6030
c030
c030
c018
c018
c018
c1f0
c0f0
6070
31f8
1f98
0e08
ENDCHAR
STARTCHAR R
ENCODING 82
SWIDTH 565 0
DWIDTH 14 0
BBX 11 17 2 -1
BITMAP
f000
ff00
cf80
c0c0
c060
c060
c0c0
c3c0
ff00
fc00
c600
c300
c180
c1c0
c0c0
c060
8000
ENDCHAR
STARTCHAR S
ENCODING 83
SWIDTH 545 0
DWIDTH 13 0
BBX 10 16 2 0
BITMAP
0600
1fc0
39c0
7040
6000
6000
7000
3e00
0f80
0180
00c0
00c0
c0c0
c1c0
7f80
3e00
ENDCHAR
STARTCHAR T
ENCODING 84
SWIDTH 736 0
DWIDTH 18 0
BBX 15 15 2 0
BITMAP
fffe
fff0
0100
0180
0180
0180
0180
0180
0180
0180
0180
0180
0180
0180
0180
ENDCHAR
STARTCHAR U
ENCODING 85
SWIDTH 561 0
DWIDTH 13 0
BBX 11 16 2 0
BITMAP
0080
c0c0
c0c0
c0c0
c060
c060
c060
c060
c060
c0c0
c0c0
c1c0
c180
c300
7e00
3c00
ENDCHAR
STARTCHAR V
ENCODING 86
SWIDTH 748 0
DWIDTH 18 0
BBX 15 16 2 0
BITMAP
0006
c006
c00c
600c
7018
3018
1830
1830
0c30
0c60
0c60
06c0
06c0
0380
0380
0300
ENDCHAR
STARTCHAR W
ENCODING 87
SWIDTH 869 0
DWIDTH 21 0
BBX 18 15 0 0
BITMAP
8000c0
c000c0
e000c0
6001c0
300180
300180
186380
18f300
0cf700
0cf600
0d9e00
079e00
071c00
070c00
020800
ENDCHAR
STARTCHAR X
ENCODING 88
SWIDTH 658 0
DWIDTH 16 0
BBX 13 16 2 0
BITMAP
0020
c020
c060
60c0
30c0
1980
0d80
0700
0700
0f80
0cc0
18e0
3060
3030
6018
4008
ENDCHAR
STARTCHAR Y
ENCODING 89
SWIDTH 669 0
DWIDTH 16 0
BBX 13 17 2 -1
BITMAP
8018
c010
6030
3060
30c0
18c0
0d80
0f00
0700
0600
0600
0600
0600
0600
0600
0600
0200
ENDCHAR
STARTCHAR Z
ENCODING 90
SWIDTH 686 0
DWIDTH 16 0
BBX 14 15 2 0
BITMAP
fff8
fff8
0030
0060
00c0
01c0
0380
0300
0600
0c00
1800
3800
7000
7ffc
fff0
ENDCHAR
STARTCHAR bracketleft
ENCODING 91
SWIDTH 330 0
DWIDTH 8 0
BBX 4 16 2 -2
BITMAP
f0
c0
c0
c0
c0
c0
c0
c0
c0
c0
c0
c0
c0
c0
c0
f0
ENDCHAR
STARTCHAR backslash
ENCODING 92
SWIDTH 602 0
DWIDTH 14 0
BBX 12 17 2 -1
BITMAP
c000
e000
6000
3000
3800
1800
0c00
0c00
0600
0300
0300
0180
00c0
00c0
0060
0060
0030
ENDCHAR
STARTCHAR bracketright
ENCODING 93
SWIDTH 349 0
DWIDTH 8 0
BBX 5 18 3 -3
BITMAP
f0
10
30
30
30
30
30
30
30
30
30
30
30
30
18
18
18
f0
ENDCHAR
STARTCHAR asciicircum
ENCODING 94
SWIDTH 573 0
DWIDTH 14 0
BBX 11 7 2 9
BITMAP
0400
0e00
1f00
3b80
31c0
60e0
c060
ENDCHAR
STARTCHAR underscore
ENCODING 95
SWIDTH 725 0
DWIDTH 17 0
BBX 14 2 2 -1
BITMAP
fffc
fffc
ENDCHAR
STARTCHAR quoteleft
ENCODING 96
SWIDTH 284 0
DWIDTH 7 0
BBX 4 4 2 11
BITMAP
c0
60
30
30
ENDCHAR
STARTCHAR a
ENCODING 97
SWIDTH 564 0
DWIDTH 14 0
BBX 11 12 2 0
BITMAP
7800
7e00
0700
0180
0080
3fc0
73c0
c0c0
c040
c060
71e0
7fe0
ENDCHAR
STARTCHAR b
ENCODING 98
SWIDTH 494 0
DWIDTH 12 0
BBX 9 15 2 0
BITMAP
c000
c000
c000
c000
c000
7800
7e00
6700
6180
6180
6180
6180
4300
fe00
fc00
ENDCHAR
STARTCHAR c
ENCODING 99
SWIDTH 530 0
DWIDTH 13 0
BBX 10 11 2 0
BITMAP
3f00
7f80
6080
c000
c000
c000
c000
c000
e000
7fc0
1fc0
ENDCHAR
STARTCHAR d
ENCODING 100
SWIDTH 586 0
DWIDTH 14 0
BBX 11 15 2 0
BITMAP
0060
0060
0060
0060
0060
0060
1f60
7fe0
e0e0
c060
c060
c060
e060
7fe0
1fe0
ENDCHAR
STARTCHAR e
ENCODING 101
SWIDTH 545 0
DWIDTH 13 0
BBX 10 11 2 0
BITMAP
1e00
7f80
e180
c780
df00
fc00
e000
c0c0
60c0
7f80
1f00
ENDCHAR
STARTCHAR f
ENCODING 102
SWIDTH 537 0
DWIDTH 13 0
BBX 10 16 2 0
BITMAP
0180
07c0
0e00
0c00
1800
1800
1800
1800
ff00
7c00
1800
1800
1800
1800
1000
3000
ENDCHAR
STARTCHAR g
ENCODING 103
SWIDTH 565 0
DWIDTH 14 0
BBX 11 18 2 -8
BITMAP
01c0
07e0
1e60
3860
7060
e060
c060
c3e0
ffe0
7c60
00c0
00c0
00c0
00c0
61c0
7180
3f80
1f00
ENDCHAR
STARTCHAR h
ENCODING 104
SWIDTH 479 0
DWIDTH 11 0
BBX 9 15 2 0
BITMAP
8000
c000
c000
c000
c000
c000
fe00
ff00
c180
c180
c180
c180
c300
c300
8300
ENDCHAR
STARTCHAR i
ENCODING 105
SWIDTH 280 0
DWIDTH 7 0
BBX 2 15 3 0
BITMAP
80
c0
c0
00
00
80
c0
c0
c0
c0
c0
c0
c0
c0
c0
ENDCHAR
STARTCHAR j
ENCODING 106
SWIDTH 464 0
DWIDTH 11 0
BBX 7 20 2 -6
BITMAP
02
06
06
00
00
06
06
06
06
06
06
06
06
06
06
c6
ec
7c
3c
1c
ENDCHAR
STARTCHAR k
ENCODING 107
SWIDTH 483 0
DWIDTH 12 0
BBX 9 16 2 0
BITMAP
8000
c000
c000
c000
c000
c200
c300
c600
cc00
dc00
7c00
7e00
6600
6300
4180
4180
ENDCHAR
STARTCHAR l
ENCODING 108
SWIDTH 189 0
DWIDTH 5 0
BBX 2 15 2 0
BITMAP
c0
c0
c0
c0
c0
c0
c0
c0
c0
c0
c0
c0
c0
c0
80
ENDCHAR
STARTCHAR m
ENCODING 109
SWIDTH 688 0
DWIDTH 17 0
BBX 14 12 2 -1
BITMAP
6610
6f38
7f78
73d8
618c
618c
618c
c18c
c18c
c18c
c188
8100
ENDCHAR
STARTCHAR n
ENCODING 110
SWIDTH 498 0
DWIDTH 12 0
BBX 9 12 2 0
BITMAP
0200
cf00
df00
fb00
e180
c180
c180
c180
c180
c180
c180
c180
ENDCHAR
STARTCHAR o
ENCODING 111
SWIDTH 553 0
DWIDTH 13 0
BBX 11 11 2 0
BITMAP
0f00
1f80
38c0
60c0
c060
c0c0
c0c0
c1c0
c380
ff00
7c00
ENDCHAR
STARTCHAR p
ENCODING 112
SWIDTH 530 0
DWIDTH 13 0
BBX 10 17 2 -7
BITMAP
7000
fc00
cf00
c380
c0c0
c0c0
c0c0
c380
ff00
f800
c000
c000
c000
c000
c000
c000
8000
ENDCHAR
STARTCHAR q
ENCODING 113
SWIDTH 607 0
DWIDTH 15 0
BBX 12 18 2 -8
BITMAP
0080
0fc0
1f80
7980
6180
c180
c180
c780
ff80
7d80
0180
0180
0100
0370
03e0
03c0
0380
0100
ENDCHAR
STARTCHAR r
ENCODING 114
SWIDTH 450 0
DWIDTH 11 0
BBX 8 11 2 0
BITMAP
c3
df
fc
f0
c0
c0
c0
c0
c0
c0
c0
ENDCHAR
STARTCHAR s
ENCODING 115
SWIDTH 493 0
DWIDTH 12 0
BBX 9 12 2 0
BITMAP
1e00
7f00
6300
6000
6000
7e00
1f00
0180
c180
e180
7f00
1e00
ENDCHAR
STARTCHAR t
ENCODING 116
SWIDTH 531 0
DWIDTH 13 0
BBX 10 13 2 0
BITMAP
1000
3000
ff00
ff00
1000
1000
1800
1800
18c0
19c0
1b80
1f00
1e00
ENDCHAR
STARTCHAR u
ENCODING 117
SWIDTH 573 0
DWIDTH 14 0
BBX 11 13 2 -1
BITMAP
8100
c100
c100
c180
c180
c180
c180
c180
c380
cf80
fd80
70e0
0040
ENDCHAR
STARTCHAR v
ENCODING 118
SWIDTH 599 0
DWIDTH 14 0
BBX 11 11 2 0
BITMAP
8020
c060
c060
60c0
60c0
3180
3180
1b00
1f00
0e00
0c00
ENDCHAR
STARTCHAR w
ENCODING 119
SWIDTH 698 0
DWIDTH 17 0
BBX 14 10 2 0
BITMAP
8000
c00c
c00c
6018
6718
67b0
3fb0
3ce0
38e0
3040
ENDCHAR
STARTCHAR x
ENCODING 120
SWIDTH 548 0
DWIDTH 13 0
BBX 11 11 2 0
BITMAP
4060
60c0
31c0
1b80
0f00
0600
0f00
1b00
3180
61c0
c0c0
ENDCHAR
STARTCHAR y
ENCODING 121
SWIDTH 626 0
DWIDTH 15 0
BBX 12 18 2 -7
BITMAP
0010
8030
c030
6070
7060
3060
18c0
0cc0
0780
0780
0300
0300
0600
0600
0c00
0c00
0c00
0800
ENDCHAR
STARTCHAR z
ENCODING 122
SWIDTH 595 0
DWIDTH 14 0
BBX 11 10 2 0
BITMAP
ffe0
ffe0
00c0
0180
0300
0600
0c00
1800
7fe0
3fe0
ENDCHAR
STARTCHAR braceleft
ENCODING 123
SWIDTH 377 0
DWIDTH 9 0
BBX 6 19 2 -4
BITMAP
04
1c
30
30
30
30
30
70
e0
e0
70
30
30
20
30
30
38
1c
04
ENDCHAR
STARTCHAR bar
ENCODING 124
SWIDTH 212 0
DWIDTH 5 0
BBX 2 17 2 -3
BITMAP
80
c0
c0
c0
c0
c0
c0
c0
c0
c0
c0
c0
40
40
40
40
40
ENDCHAR
STARTCHAR braceright
ENCODING 125
SWIDTH 348 0
DWIDTH 8 0
BBX 5 18 2 -2
BITMAP
70
30
30
30
30
30
30
18
18
30
30
30
18
18
18
38
f0
c0
ENDCHAR
STARTCHAR asciitilde
ENCODING 126
SWIDTH 622 0
DWIDTH 15 0
BBX 12 4 2 5
BITMAP
7830
fe30
c7e0
81c0
ENDCHAR
STARTCHAR exclamdown
ENCODING 161
SWIDTH 250 0
DWIDTH 6 0
BBX 3 15 5 -4
BITMAP
c0
c0
00
c0
c0
c0
c0
c0
40
60
60
60
60
60
60
ENDCHAR
STARTCHAR cent
ENCODING 162
SWIDTH 530 0
DWIDTH 13 0
BBX 10 13 2 0
BITMAP
0c00
0c00
3f00
7f80
6080
c000
c000
c000
e000
7fc0
3f80
0c00
0c00
ENDCHAR
STARTCHAR sterling
ENCODING 163
SWIDTH 571 0
DWIDTH 14 0
BBX 13 16 2 0
BITMAP
0fc0
1fe0
3830
3000
3000
3000
3000
ff00
ff00
3000
3000
3000
3000
3018
fff0
ffe0
ENDCHAR
STARTCHAR currency
ENCODING 164
SWIDTH 750 0
DWIDTH 18 0
BBX 7 9 4 5
BITMAP
82
c6
7c
6c
44
6c
7c
c6
82
ENDCHAR
STARTCHAR yen
ENCODING 165
SWIDTH 750 0
DWIDTH 18 0
BBX 14 15 2 0
BITMAP
c00c
6018
3030
1860
0cc0
0780
0300
3ff0
0300
0300
3ff0
0300
0300
0300
0fc0
ENDCHAR
STARTCHAR brokenbar
ENCODING 166
SWIDTH 212 0
DWIDTH 5 0
BBX 2 17 5 -3
BITMAP
80
c0
c0
c0
c0
c0
c0
00
00
c0
c0
c0
c0
c0
40
40
40
ENDCHAR
STARTCHAR section
ENCODING 167
SWIDTH 750 0
DWIDTH 18 0
BBX 11 21 3 -5
BITMAP
1e00
7f80
e1c0
c000
c000
6000
7c00
ff00
c380
c0c0
c060
6060
3860
1fe0
07c0
00c0
0060
0060
70e0
3fc0
0f00
ENDCHAR
STARTCHAR dieresis
ENCODING 168
SWIDTH 750 0
DWIDTH 18 0
BBX 6 2 6 12
BITMAP
cc
cc
ENDCHAR
STARTCHAR copyright
ENCODING 169
SWIDTH 750 0
DWIDTH 18 0
BBX 13 13 2 -1
BITMAP
1fc0
7ff0
6030
cf18
dd98
d818
d818
d818
dd98
cf18
6030
7ff0
1fc0
ENDCHAR
STARTCHAR ordfeminine
ENCODING 170
SWIDTH 564 0
DWIDTH 14 0
BBX 7 9 4 6
BITMAP
78
0c
06
7e
c6
c6
7e
00
fe
ENDCHAR
STARTCHAR guillemotleft
ENCODING 171
SWIDTH 750 0
DWIDTH 18 0
BBX 9 10 4 1
BITMAP
0880
1980
3300
6600
cc00
cc00
6600
3300
1980
0880
ENDCHAR
STARTCHAR logicalnot
ENCODING 172
SWIDTH 750 0
DWIDTH 18 0
BBX 12 5 3 4
BITMAP
fff0
7ff0
0030
0030
0030
ENDCHAR
STARTCHAR hyphen
ENCODING 173
SWIDTH 545 0
DWIDTH 13 0
BBX 8 2 4 6
BITMAP
ff
0f
ENDCHAR
STARTCHAR registered
ENCODING 174
SWIDTH 750 0
DWIDTH 18 0
BBX 13 13 2 -1
BITMAP
1fc0
7ff0
6030
cf18
cf98
cd98
cf18
cf18
cd98
cd98
6030
7ff0
1fc0
ENDCHAR
STARTCHAR macron
ENCODING 175
SWIDTH 750 0
DWIDTH 18 0
BBX 6 2 6 12
BITMAP
fc
f8
ENDCHAR
STARTCHAR degree
ENCODING 176
SWIDTH 750 0
DWIDTH 18 0
BBX 6 5 6 8
BITMAP
78
cc
cc
ec
78
ENDCHAR
STARTCHAR plusminus
ENCODING 177
SWIDTH 530 0
DWIDTH 13 0
BBX 10 12 2 0
BITMAP
0c00
0c00
0c00
7fc0
ffc0
0c00
0c00
0c00
0c00
0000
f800
ffc0
ENDCHAR
STARTCHAR twosuperior
ENCODING 178
SWIDTH 750 0
DWIDTH 18 0
BBX 4 7 6 7
BITMAP
60
f0
30
60
c0
f0
f0
ENDCHAR
STARTCHAR threesuperior
ENCODING 179
SWIDTH 750 0
DWIDTH 18 0
BBX 4 7 6 7
BITMAP
60
f0
30
60
30
f0
60
ENDCHAR
STARTCHAR acute
ENCODING 180
SWIDTH 750 0
DWIDTH 18 0
BBX 4 3 7 11
BITMAP
30
60
c0
ENDCHAR
STARTCHAR mu
ENCODING 181
SWIDTH 573 0
DWIDTH 14 0
BBX 11 15 2 -3
BITMAP
8100
c100
c100
c180
c180
c180
c180
c180
c380
cf80
fd80
f0e0
c040
c000
c000
ENDCHAR
STARTCHAR paragraph
ENCODING 182
SWIDTH 750 0
DWIDTH 18 0
BBX 13 17 1 -2
BITMAP
3ff8
7ff8
ec60
cc60
cc60
cc60
cc60
cc60
6c60
3c60
0c60
0c60
0c60
0c60
0c60
0c60
0c60
ENDCHAR
STARTCHAR periodcentered
ENCODING 183
SWIDTH 750 0
DWIDTH 18 0
BBX 2 2 8 5
BITMAP
c0
c0
ENDCHAR
STARTCHAR cedilla
ENCODING 184
SWIDTH 750 0
DWIDTH 18 0
BBX 3 3 7 -3
BITMAP
60
20
e0
ENDCHAR
STARTCHAR onesuperior
ENCODING 185
SWIDTH 750 0
DWIDTH 18 0
BBX 4 7 6 7
BITMAP
60
e0
e0
60
60
60
f0
ENDCHAR
STARTCHAR ordmasculine
ENCODING 186
SWIDTH 564 0
DWIDTH 14 0
BBX 7 8 4 6
BITMAP
7c
c6
c6
c6
c6
7c
00
fe
ENDCHAR
STARTCHAR guillemotright
ENCODING 187
SWIDTH 750 0
DWIDTH 18 0
BBX 9 10 4 1
BITMAP
8800
cc00
6600
3300
1980
1980
3300
6600
cc00
8800
ENDCHAR
STARTCHAR onequarter
ENCODING 188
SWIDTH 750 0
DWIDTH 18 0
BBX 12 15 3 0
BITMAP
3000
7000
7010
3030
3060
30c0
7980
0300
0660
0ce0
19e0
3360
63f0
c060
8060
ENDCHAR
STARTCHAR onehalf
ENCODING 189
SWIDTH 750 0
DWIDTH 18 0
BBX 12 16 3 -1
BITMAP
3000
7000
7010
3030
3060
30c0
7980
0300
0600
0cc0
19e0
3060
60c0
c180
81e0
01e0
ENDCHAR
STARTCHAR threequarters
ENCODING 190
SWIDTH 750 0
DWIDTH 18 0
BBX 12 14 3 0
BITMAP
3000
7810
1830
3060
18c0
7980
3300
0660
0ce0
19e0
3360
63f0
c060
8060
ENDCHAR
STARTCHAR questiondown
ENCODING 191
SWIDTH 582 0
DWIDTH 14 0
BBX 11 16 3 -5
BITMAP
0c00
0c00
0000
0400
0c00
0c00
0600
0c00
3c00
7000
e000
c000
c060
f0e0
7fc0
1f00
ENDCHAR
STARTCHAR Agrave
ENCODING 192
SWIDTH 790 0
DWIDTH 19 0
BBX 14 16 2 0
BITMAP
0c00
0600
0300
0000
0100
0380
06c0
06c0
0c60
0c60
1ff0
3ff0
3018
6018
600c
c00c
ENDCHAR
STARTCHAR Aacute
ENCODING 193
SWIDTH 790 0
DWIDTH 19 0
BBX 14 16 2 0
BITMAP
00c0
0180
0300
0000
0100
0380
06c0
06c0
0c60
0c60
1ff0
3ff0
3018
6018
600c
c00c
ENDCHAR
STARTCHAR Acircumflex
ENCODING 194
SWIDTH 790 0
DWIDTH 19 0
BBX 14 16 2 0
BITMAP
0180
03c0
0660
0000
0100
0380
06c0
06c0
0c60
0c60
1ff0
3ff0
3018
6018
600c
c00c
ENDCHAR
STARTCHAR Atilde
ENCODING 195
SWIDTH 790 0
DWIDTH 19 0
BBX 14 15 2 0
BITMAP
0760
0dc0
0000
0100
0380
06c0
06c0
0c60
0c60
1ff0
3ff0
3018
6018
600c
c00c
ENDCHAR
STARTCHAR Adieresis
ENCODING 196
SWIDTH 790 0
DWIDTH 19 0
BBX 14 15 2 0
BITMAP
0660
0660
0000
0100
0380
06c0
06c0
0c60
0c60
1ff0
3ff0
3018
6018
600c
c00c
ENDCHAR
STARTCHAR Aring
ENCODING 197
SWIDTH 790 0
DWIDTH 19 0
BBX 14 15 2 0
BITMAP
0380
06c0
0380
0100
0380
06c0
06c0
0c60
0c60
1ff0
3ff0
3018
6018
600c
c00c
ENDCHAR
STARTCHAR AE
ENCODING 198
SWIDTH 623 0
DWIDTH 15 0
BBX 15 15 1 0
BITMAP
07fe
0ffe
1d80
1980
3980
31f8
71f8
7180
7f80
ff80
c180
c180
c180
c1fe
c1e0
ENDCHAR
STARTCHAR Ccedilla
ENCODING 199
SWIDTH 609 0
DWIDTH 15 0
BBX 12 18 2 -3
BITMAP
0f80
1fc0
3040
6000
c000
c000
c000
8000
c000
c000
c000
6030
70e0
1fc0
0f00
0600
0200
0e00
ENDCHAR
STARTCHAR Egrave
ENCODING 200
SWIDTH 623 0
DWIDTH 15 0
BBX 10 17 4 -1
BITMAP
1800
0c00
0600
0000
7fc0
7fc0
6000
6000
6000
7f00
7f00
4000
4000
c000
c000
ffc0
f800
ENDCHAR
STARTCHAR Eacute
ENCODING 201
SWIDTH 623 0
DWIDTH 15 0
BBX 10 17 4 -1
BITMAP
0180
0300
0600
0000
7fc0
7fc0
6000
6000
6000
7f00
7f00
4000
4000
c000
c000
ffc0
f800
ENDCHAR
STARTCHAR Ecircumflex
ENCODING 202
SWIDTH 623 0
DWIDTH 15 0
BBX 10 17 4 -1
BITMAP
0600
0f00
1980
0000
7fc0
7fc0
6000
6000
6000
7f00
7f00
4000
4000
c000
c000
ffc0
f800
ENDCHAR
STARTCHAR Edieresis
ENCODING 203
SWIDTH 623 0
DWIDTH 15 0
BBX 10 16 4 -1
BITMAP
1980
1980
0000
7fc0
7fc0
6000
6000
6000
7f00
7f00
4000
4000
c000
c000
ffc0
f800
ENDCHAR
STARTCHAR Igrave
ENCODING 204
SWIDTH 194 0
DWIDTH 5 0
BBX 4 16 3 0
BITMAP
c0
60
30
00
30
30
30
30
30
30
30
30
30
30
30
30
ENDCHAR
STARTCHAR Iacute
ENCODING 205
SWIDTH 194 0
DWIDTH 5 0
BBX 4 16 5 0
BITMAP
30
60
c0
00
c0
c0
c0
c0
c0
c0
c0
c0
c0
c0
c0
c0
ENDCHAR
STARTCHAR Icircumflex
ENCODING 206
SWIDTH 194 0
DWIDTH 5 0
BBX 6 16 3 0
BITMAP
30
78
cc
00
30
30
30
30
30
30
30
30
30
30
30
30
ENDCHAR
STARTCHAR Idieresis
ENCODING 207
SWIDTH 194 0
DWIDTH 5 0
BBX 6 15 3 0
BITMAP
cc
cc
00
30
30
30
30
30
30
30
30
30
30
30
30
ENDCHAR
STARTCHAR Eth
ENCODING 208
SWIDTH 600 0
DWIDTH 14 0
BBX 14 17 0 -1
BITMAP
1000
3c00
3f00
33c0
30f0
3038
301c
fe0c
fe0c
3018
3030
3070
31e0
3380
3f00
3c00
1000
ENDCHAR
STARTCHAR Ntilde
ENCODING 209
SWIDTH 492 0
DWIDTH 12 0
BBX 9 15 2 0
BITMAP
3b00
6e00
0000
c180
e180
e180
f180
f180
d980
d980
cd80
c580
c780
c380
c180
ENDCHAR
STARTCHAR Ograve
ENCODING 210
SWIDTH 590 0
DWIDTH 14 0
BBX 11 16 2 0
BITMAP
1800
0c00
0600
0000
0f00
3fc0
70e0
c060
c020
c020
c060
c060
6040
39c0
1f80
0600
ENDCHAR
STARTCHAR Oacute
ENCODING 211
SWIDTH 590 0
DWIDTH 14 0
BBX 11 16 2 0
BITMAP
0180
0300
0600
0000
0f00
3fc0
70e0
c060
c020
c020
c060
c060
6040
39c0
1f80
0600
ENDCHAR
STARTCHAR Ocircumflex
ENCODING 212
SWIDTH 590 0
DWIDTH 14 0
BBX 11 16 2 0
BITMAP
0600
0f00
1980
0000
0f00
3fc0
70e0
c060
c020
c020
c060
c060
6040
39c0
1f80
0600
ENDCHAR
STARTCHAR Otilde
ENCODING 213
SWIDTH 590 0
DWIDTH 14 0
BBX 11 15 2 0
BITMAP
1d80
3700
0000
0f00
3fc0
70e0
c060
c020
c020
c060
c060
6040
39c0
1f80
0600
ENDCHAR
STARTCHAR Odieresis
ENCODING 214
SWIDTH 590 0
DWIDTH 14 0
BBX 11 15 2 0
BITMAP
1980
1980
0000
0f00
3fc0
70e0
c060
c020
c020
c060
c060
6040
39c0
1f80
0600
ENDCHAR
STARTCHAR multiply
ENCODING 215
SWIDTH 750 0
DWIDTH 18 0
BBX 10 9 4 1
BITMAP
c0c0
6180
3300
1e00
0c00
1e00
3300
6180
c0c0
ENDCHAR
STARTCHAR Oslash
ENCODING 216
SWIDTH 590 0
DWIDTH 14 0
BBX 13 14 1 0
BITMAP
0788
1cd8
1870
3060
60f0
61b0
6330
6630
6c30
7830
3020
7ce0
cfc0
8300
ENDCHAR
STARTCHAR Ugrave
ENCODING 217
SWIDTH 561 0
DWIDTH 13 0
BBX 11 16 2 0
BITMAP
1800
0c00
0600
0000
c060
c060
c060
c060
c060
c0c0
c0c0
c1c0
c180
c300
7e00
3c00
ENDCHAR
STARTCHAR Uacute
ENCODING 218
SWIDTH 561 0
DWIDTH 13 0
BBX 11 16 2 0
BITMAP
0300
0600
0c00
0000
c060
c060
c060
c060
c060
c0c0
c0c0
c1c0
c180
c300
7e00
3c00
ENDCHAR
STARTCHAR Ucircumflex
ENCODING 219
SWIDTH 561 0
DWIDTH 13 0
BBX 11 16 2 0
BITMAP
0600
0f00
1980
0000
c060
c060
c060
c060
c060
c0c0
c0c0
c1c0
c180
c300
7e00
3c00
ENDCHAR
STARTCHAR Udieresis
ENCODING 220
SWIDTH 561 0
DWIDTH 13 0
BBX 11 15 2 0
BITMAP
1980
1980
0000
c060
c060
c060
c060
c060
c0c0
c0c0
c1c0
c180
c300
7e00
3c00
ENDCHAR
STARTCHAR Yacute
ENCODING 221
SWIDTH 669 0
DWIDTH 16 0
BBX 11 16 3 0
BITMAP
0300
0600
0c00
0000
c060
60c0
6180
3180
1b00
1e00
0e00
0c00
0c00
0c00
0c00
0c00
ENDCHAR
STARTCHAR Thorn
ENCODING 222
SWIDTH 750 0
DWIDTH 18 0
BBX 9 14 5 0
BITMAP
c000
c000
c000
fe00
ff00
c380
c180
c180
c380
ff00
fe00
c000
c000
c000
ENDCHAR
STARTCHAR germandbls
ENCODING 223
SWIDTH 750 0
DWIDTH 18 0
BBX 10 15 5 0
BITMAP
3e00
7f00
e300
c300
ce00
ce00
c300
c180
c0c0
c0c0
c0c0
c0c0
c1c0
cf80
cf00
ENDCHAR
STARTCHAR agrave
ENCODING 224
SWIDTH 564 0
DWIDTH 14 0
BBX 11 15 2 0
BITMAP
1800
0c00
0600
0000
7800
7e00
0700
0180
3fc0
71c0
c060
c060
c060
71e0
7fe0
ENDCHAR
STARTCHAR aacute
ENCODING 225
SWIDTH 564 0
DWIDTH 14 0
BBX 11 15 2 0
BITMAP
0180
0300
0600
0000
7800
7e00
0700
0180
3fc0
71c0
c060
c060
c060
71e0
7fe0
ENDCHAR
STARTCHAR acircumflex
ENCODING 226
SWIDTH 564 0
DWIDTH 14 0
BBX 11 15 2 0
BITMAP
0600
0f00
1980
0000
7800
7e00
0700
0180
3fc0
71c0
c060
c060
c060
71e0
7fe0
ENDCHAR
STARTCHAR atilde
ENCODING 227
SWIDTH 564 0
DWIDTH 14 0
BBX 11 14 2 0
BITMAP
1d80
3700
0000
7800
7e00
0700
0180
3fc0
71c0
c060
c060
c060
71e0
7fe0
ENDCHAR
STARTCHAR adieresis
ENCODING 228
SWIDTH 564 0
DWIDTH 14 0
BBX 11 14 2 0
BITMAP
3300
3300
0000
7800
7e00
0700
0180
3fc0
71c0
c060
c060
c060
71e0
7fe0
ENDCHAR
STARTCHAR aring
ENCODING 229
SWIDTH 564 0
DWIDTH 14 0
BBX 11 15 2 0
BITMAP
0e00
1b00
0e00
0000
7800
7e00
0700
0180
3fc0
71c0
c060
c060
c060
71e0
7fe0
ENDCHAR
STARTCHAR ae
ENCODING 230
SWIDTH 564 0
DWIDTH 14 0
BBX 15 11 2 0
BITMAP
7c78
0ecc
0786
0386
3bfe
7ffe
e780
c380
c3c0
e7e6
7e7c
ENDCHAR
STARTCHAR ccedilla
ENCODING 231
SWIDTH 530 0
DWIDTH 13 0
BBX 10 14 2 -3
BITMAP
3f00
7f80
6080
c000
c000
c000
c000
c000
e000
7fc0
1fc0
0600
0200
0e00
ENDCHAR
STARTCHAR egrave
ENCODING 232
SWIDTH 545 0
DWIDTH 13 0
BBX 10 15 2 0
BITMAP
3000
1800
0c00
0000
1e00
7f80
e180
c780
df00
fc00
e000
c0c0
60c0
7f80
1f00
ENDCHAR
STARTCHAR eacute
ENCODING 233
SWIDTH 545 0
DWIDTH 13 0
BBX 10 15 2 0
BITMAP
0300
0600
0c00
0000
1e00
7f80
e180
c780
df00
fc00
e000
c0c0
60c0
7f80
1f00
ENDCHAR
STARTCHAR ecircumflex
ENCODING 234
SWIDTH 545 0
DWIDTH 13 0
BBX 10 15 2 0
BITMAP
0c00
1e00
3300
0000
1e00
7f80
e180
c780
df00
fc00
e000
c0c0
60c0
7f80
1f00
ENDCHAR
STARTCHAR edieresis
ENCODING 235
SWIDTH 545 0
DWIDTH 13 0
BBX 10 14 2 0
BITMAP
3300
3300
0000
1e00
7f80
e180
c780
df00
fc00
e000
c0c0
60c0
7f80
1f00
ENDCHAR
STARTCHAR igrave
ENCODING 236
SWIDTH 280 0
DWIDTH 7 0
BBX 4 14 4 0
BITMAP
c0
60
30
00
20
30
30
30
30
30
30
30
30
30
ENDCHAR
STARTCHAR iacute
ENCODING 237
SWIDTH 280 0
DWIDTH 7 0
BBX 4 14 6 0
BITMAP
30
60
c0
00
80
c0
c0
c0
c0
c0
c0
c0
c0
c0
ENDCHAR
STARTCHAR icircumflex
ENCODING 238
SWIDTH 280 0
DWIDTH 7 0
BBX 6 14 4 0
BITMAP
30
78
cc
00
20
30
30
30
30
30
30
30
30
30
ENDCHAR
STARTCHAR idieresis
ENCODING 239
SWIDTH 280 0
DWIDTH 7 0
BBX 6 13 4 0
BITMAP
cc
cc
00
20
30
30
30
30
30
30
30
30
30
ENDCHAR
STARTCHAR eth
ENCODING 240
SWIDTH 553 0
DWIDTH 13 0
BBX 11 16 2 0
BITMAP
e180
ff00
3e00
7700
c380
0fc0
1fc0
38c0
60c0
c060
c0c0
c0c0
c1c0
c380
ff00
7c00
ENDCHAR
STARTCHAR ntilde
ENCODING 241
SWIDTH 498 0
DWIDTH 12 0
BBX 9 15 2 0
BITMAP
3b00
6e00
0000
0200
cf00
df00
fb00
e180
c180
c180
c180
c180
c180
c180
c180
ENDCHAR
STARTCHAR ograve
ENCODING 242
SWIDTH 553 0
DWIDTH 13 0
BBX 11 15 2 0
BITMAP
1800
0c00
0600
0000
0f00
1f80
38c0
60c0
c060
c0c0
c0c0
c1c0
c380
ff00
7c00
ENDCHAR
STARTCHAR oacute
ENCODING 243
SWIDTH 553 0
DWIDTH 13 0
BBX 11 15 2 0
BITMAP
0180
0300
0600
0000
0f00
1f80
38c0
60c0
c060
c0c0
c0c0
c1c0
c380
ff00
7c00
ENDCHAR
STARTCHAR ocircumflex
ENCODING 244
SWIDTH 553 0
DWIDTH 13 0
BBX 11 15 2 0
BITMAP
0600
0f00
1980
0000
0f00
1f80
38c0
60c0
c060
c0c0
c0c0
c1c0
c380
ff00
7c00
ENDCHAR
STARTCHAR otilde
ENCODING 245
SWIDTH 553 0
DWIDTH 13 0
BBX 11 14 2 0
BITMAP
1d80
3700
0000
0f00
1f80
38c0
60c0
c060
c0c0
c0c0
c1c0
c380
ff00
7c00
ENDCHAR
STARTCHAR odieresis
ENCODING 246
SWIDTH 553 0
DWIDTH 13 0
BBX 11 14 2 0
BITMAP
1980
1980
0000
0f00
1f80
38c0
60c0
c060
c0c0
c0c0
c1c0
c380
ff00
7c00
ENDCHAR
STARTCHAR divide
ENCODING 247
SWIDTH 545 0
DWIDTH 13 0
BBX 10 10 2 2
BITMAP
0c00
0c00
0000
0000
ffc0
ffc0
0000
0000
0c00
0c00
ENDCHAR
STARTCHAR oslash
ENCODING 248
SWIDTH 553 0
DWIDTH 13 0
BBX 12 11 1 0
BITMAP
07b0
0fe0
1ce0
31e0
6330
6660
6c60
78e0
71c0
7f80
de00
ENDCHAR
STARTCHAR ugrave
ENCODING 249
SWIDTH 573 0
DWIDTH 14 0
BBX 11 16 2 -1
BITMAP
6000
3000
1800
0000
c100
c100
c180
c180
c180
c180
c180
c380
cf80
fd80
70e0
0040
ENDCHAR
STARTCHAR uacute
ENCODING 250
SWIDTH 573 0
DWIDTH 14 0
BBX 11 16 2 -1
BITMAP
0600
0c00
1800
0000
c100
c100
c180
c180
c180
c180
c180
c380
cf80
fd80
70e0
0040
ENDCHAR
STARTCHAR ucircumflex
ENCODING 251
SWIDTH 573 0
DWIDTH 14 0
BBX 11 16 2 -1
BITMAP
0c00
1e00
3300
0000
c100
c100
c180
c180
c180
c180
c180
c380
cf80
fd80
70e0
0040
ENDCHAR
STARTCHAR udieresis
ENCODING 252
SWIDTH 573 0
DWIDTH 14 0
BBX 11 15 2 -1
BITMAP
3300
3300
0000
c100
c100
c180
c180
c180
c180
c180
c380
cf80
fd80
70e0
0040
ENDCHAR
STARTCHAR yacute
ENCODING 253
SWIDTH 626 0
DWIDTH 15 0
BBX 12 21 2 -7
BITMAP
0180
0300
0600
0000
8030
c030
6070
7060
3060
18c0
0cc0
0780
0780
0300
0300
0600
0600
0c00
0c00
0c00
0800
ENDCHAR
STARTCHAR thorn
ENCODING 254
SWIDTH 750 0
DWIDTH 18 0
BBX 11 19 5 -4
BITMAP
c000
c000
c000
c000
c000
df80
ffc0
e0e0
c060
c060
c060
c060
e0e0
ffc0
df80
c000
c000
c000
c000
ENDCHAR
STARTCHAR ydieresis
ENCODING 255
SWIDTH 626 0
DWIDTH 15 0
BBX 12 20 2 -7
BITMAP
1980
1980
0000
8030
c030
6070
7060
3060
18c0
0cc0
0780
0780
0300
0300
0600
0600
0c00
0c00
0c00
0800
ENDCHAR
ENDFONT
